<svg xmlns="http://www.w3.org/2000/svg" width="744.094" height="310.039"><path d="M-35.684 16.175v23.019H35.02c8.22 0 12.331 1.643 16.442 5.754 3.289 4.111 3.289 5.754 3.289 20.553v118.385c0 22.196-4.112 26.307-23.842 26.307h-19.73V62.213h-46.862v173.465h87.145c20.551 0 26.308-1.643 36.173-11.508 9.043-9.045 10.686-15.622 10.686-41.107V58.925c0-15.62-1.643-21.376-8.22-29.596-8.222-9.045-18.908-13.154-33.707-13.154zm147.98 219.503h43.573V123.871c0-8.22 0-10.688 1.643-13.154 2.468-5.754 9.045-9.043 17.265-9.043 7.4 0 12.331 1.644 18.087 5.755V74.544c-48.506.823-64.125 4.111-80.568 17.265zM226.57 10.418c-13.974 0-24.662 10.688-24.662 23.842 0 13.977 10.688 24.665 24.662 24.665 13.154 0 23.842-10.688 23.842-24.665 0-13.154-10.688-23.84-23.842-23.84zm58.372 0c-13.977 0-24.665 10.688-24.665 23.842 0 13.977 10.688 24.665 24.665 24.665 13.154 0 23.84-10.688 23.84-24.665 0-13.154-10.686-23.84-23.84-23.84zm-18.088 122.496h-37.816c-14.799 0-21.376 1.645-28.775 9.044q-12.33 9.866-12.331 29.596v25.485c0 11.509 2.465 19.731 9.042 27.13 8.222 9.043 15.622 11.51 32.885 11.51h81.39V113.182c0-10.686-3.288-19.73-10.688-27.128-9.042-9.045-16.442-11.51-32.884-11.51h-65.769v32.884c16.442-6.577 27.13-9.043 41.927-9.043 15.62 0 23.02 4.932 23.02 15.62zm0 77.28h-18.908c-7.4 0-13.153-2.467-16.442-8.223-1.645-2.466-1.645-3.288-1.645-10.686v-14.799c0-12.331 5.756-18.085 18.087-18.085h18.908zm175.11-134.827h-77.279c-14.797 0-20.551 1.643-28.773 8.22-8.22 7.4-12.331 18.087-12.331 30.419v23.841c0 9.866 3.288 19.73 9.865 27.13 8.22 9.043 14.797 11.509 31.24 11.509h35.352c15.62 0 22.196-2.466 29.596-8.22 8.22-7.4 12.33-17.265 12.33-30.419zm-77.279 41.104c0-10.686 6.577-17.262 18.91-17.262 12.331 0 18.908 6.576 18.908 17.262v18.91c0 10.686-7.4 17.263-18.908 17.263-12.331 0-18.91-6.577-18.91-17.263zm80.568 105.23c0-12.33-2.466-20.55-9.043-27.95-8.222-9.043-17.264-11.51-34.53-11.51h-36.172c-16.442 0-23.02 1.645-31.24 8.221-8.222 7.4-13.153 18.908-13.153 31.24v23.841c0 11.511 4.109 21.376 10.686 27.953 8.222 9.043 15.621 11.509 33.707 11.509h36.173c15.621 0 23.019-1.643 31.241-8.22 8.22-7.4 12.331-16.443 12.331-31.242zm-80.568 4.112c0-12.331 5.756-18.908 18.088-18.908 12.33 0 18.908 6.577 18.908 18.908V243.9c0 10.686-6.577 17.263-18.086 17.263-12.331 0-18.91-6.577-18.91-17.263zm213.751-49.327v-62.48c0-26.308-13.976-38.64-43.572-38.64H498.69c-15.62 0-22.199 1.644-30.419 8.22-8.22 7.4-13.154 18.088-13.154 30.42v83.033c0 11.509 3.289 19.731 10.688 27.951 8.22 8.222 15.62 10.688 32.885 10.688h78.923v-32.884c-22.197 6.576-35.353 8.222-51.795 8.222-18.908 0-27.128-4.111-27.128-14.8v-19.73zm-79.745-25.485v-32.884c0-12.332 5.754-18.908 18.085-18.908 11.511 0 18.088 6.576 18.088 18.085v33.707zm93.72 84.677h43.572V123.871c0-8.22 0-10.688 1.643-13.154 2.468-5.754 9.045-9.043 17.265-9.043 7.4 0 12.331 1.644 18.088 5.755V74.544c-48.505.823-64.126 4.111-80.568 17.265z" style="fill:#002766;fill-opacity:1;fill-rule:evenodd" transform="translate(53.4 7.308)"/></svg>